# xmcd
#
# Track frame offsets: 
#        150
#        18042
#        33868
#
# Disc length: 753 seconds
#
# Revision: 0
# Processed by: cddbd v1.5.2PL0 Copyright (c) Steve Scherf et al.
# Submitted via: ExactAudioCopy v1.0b3
#
DISCID=1202ef03
DTITLE=宮野真守 - ULTRA FLY
DYEAR=1900
DGENRE=Ambient
TTITLE0=ULTRA FLY
TTITLE1=IT'S THE TIME
TTITLE2=GOLDEN NIGHT
EXTD=
EXTT0=
EXTT1=
EXTT2=
PLAYORDER=
